<svg width="557" height="499" viewBox="0 0 557 499" fill="none" xmlns="http://www.w3.org/2000/svg">
<rect width="557" height="499" fill="white"/>
<g clip-path="url(#clip0_1_2)">
<rect x="175.447" y="196.297" width="202.253" height="109.382" fill="#FFF700"/>
<path d="M201.726 130.574C200.44 132.717 202.583 140.862 206.441 148.579C210.728 156.724 212.014 162.726 209.442 163.583C206.87 164.441 196.153 170.871 185.007 177.73L165.287 190.591V247.607C165.287 296.906 166.144 305.909 173.003 311.482C185.007 322.199 260.885 362.496 272.889 365.068C281.034 366.354 295.609 360.353 328.619 342.348C392.922 306.766 388.207 314.483 388.207 248.464C388.207 186.304 388.207 186.304 358.198 171.3C350.053 167.013 342.765 163.154 341.908 162.726C341.479 162.297 344.052 155.867 348.338 148.579C354.769 137.433 355.198 134.432 350.482 129.716C344.909 124.143 339.336 128.43 328.619 146.864C326.046 151.58 320.045 150.294 301.182 140.862L276.747 128.859L253.169 140.434C239.879 146.864 228.733 152.008 227.876 152.008C227.019 152.008 224.018 146.007 221.446 139.148C217.159 126.716 206.87 122 201.726 130.574ZM220.16 220.599C236.878 225.743 259.599 229.173 278.89 229.173C298.181 229.173 320.902 225.743 337.621 220.599C369.773 210.311 375.346 210.311 375.346 218.027C375.346 221.885 363.771 228.316 346.624 234.317C323.474 242.034 308.899 244.177 276.747 243.749C230.019 243.32 185.435 231.745 183.292 219.313C181.577 209.882 187.15 210.311 220.16 220.599ZM220.16 272.042C253.169 282.331 295.609 283.188 328.19 273.757C367.63 262.182 375.346 261.754 375.346 269.041C375.346 278.044 327.333 293.048 289.608 296.478C250.597 299.907 182.435 282.759 182.435 269.47C182.435 261.754 188.008 261.754 220.16 272.042Z" fill="black"/>
<path d="M225.304 129.288C225.304 131.431 227.019 135.289 229.162 138.29C231.734 143.006 235.592 142.149 247.167 135.289L261.743 126.287H243.738C233.449 126.287 225.304 127.573 225.304 129.288Z" fill="black"/>
<path d="M294.323 128.002C295.181 128.859 302.04 132.717 309.756 136.575C323.046 143.006 323.903 143.006 328.19 134.861C332.477 126.716 331.619 126.287 312.757 126.287C301.611 126.287 293.466 127.144 294.323 128.002Z" fill="black"/>
<path d="M230.127 146.114L220.481 128.43L230.127 120.392H257.456L268.709 128.43L230.127 146.114Z" fill="white"/>
<path d="M288 128.43L296.038 120.392H337.835L326.582 146.114H320.152L288 128.43Z" fill="white"/>
</g>
<defs>
<clipPath id="clip0_1_2">
<rect width="254" height="305.443" fill="white" transform="translate(161 122)"/>
</clipPath>
</defs>
</svg>
