<svg width="303" height="53" viewBox="0 0 303 53" fill="none" xmlns="http://www.w3.org/2000/svg">
<path d="M0.000839944 34.2465C0.0741146 28.5579 7.70689 25.4042 22.8992 24.7854C23.3251 24.7486 23.6136 24.7303 23.7693 24.7303V24.5557C23.7693 21.4586 21.2245 19.9101 16.135 19.9101C15.0169 19.8962 13.9005 20.004 12.8056 20.2318C12.0619 20.367 11.3475 20.6313 10.6944 21.0129C10.2863 21.2768 9.90854 21.585 9.56776 21.9319C9.33186 22.1517 9.16209 22.4335 9.07774 22.7452L8.95867 23.0347H1.50297V22.9796C2.04643 20.2747 3.76227 18.1686 6.65052 16.6615C9.11743 15.384 12.2988 14.7453 16.1945 14.7453C20.9391 14.7453 24.5936 15.6169 27.1583 17.3599C28.368 18.1198 29.3593 19.1833 30.0339 20.4453C30.7086 21.7073 31.0434 23.1241 31.0052 24.5557V33.6078C30.9539 34.1174 31.0766 34.6293 31.3532 35.0598C31.5143 35.2113 31.7062 35.326 31.9158 35.3958C32.1253 35.4656 32.3474 35.4889 32.5668 35.4642H33.7805V41.4377H32.5073C29.8816 41.4377 27.9536 41.1574 26.7232 40.5968C26.0897 40.2915 25.5322 39.848 25.0916 39.2986C24.651 38.7492 24.3385 38.1079 24.1769 37.4216C21.481 40.485 17.1822 42.0166 11.2806 42.0166C7.42448 42.0166 4.58051 41.2998 2.74864 39.8662C1.88296 39.2361 1.18129 38.406 0.702992 37.4462C0.224698 36.4864 -0.0161453 35.4251 0.000839944 34.3522V34.2465ZM12.4942 36.8565H12.9521C15.4737 36.8462 17.959 36.2534 20.2155 35.1241C22.5878 33.9601 23.7739 32.4116 23.7739 30.4786V29.1507C13.0544 29.4968 7.69468 31.2184 7.69468 34.3154C7.69468 35.9375 9.29298 36.7921 12.4942 36.8656" fill="black"/>
<path d="M35.1681 28.443C35.1681 24.381 36.6427 21.1017 39.592 18.6051C42.5414 16.1085 46.3577 14.8602 51.0412 14.8602H52.3144C56.4391 15.0164 59.6449 16.565 61.9317 19.5058V15.3243H69.108V44.1119C69.108 47.3254 68.4516 49.4544 67.1387 50.499C65.8259 51.5436 63.3972 52.0659 59.8525 52.0659H37.7144V46.2027H59.8113C60.0795 46.2301 60.3505 46.2036 60.6084 46.1247C60.8664 46.0458 61.106 45.9161 61.3134 45.7432C61.6358 45.2781 61.7805 44.7121 61.721 44.1487V37.3803C59.4434 40.2047 56.3384 41.7134 52.406 41.9064C51.9068 41.9477 51.403 41.9661 50.9038 41.9661C46.2387 41.9661 42.4498 40.7561 39.5371 38.336C36.6244 35.916 35.1681 32.6183 35.1681 28.443ZM45.4082 34.2465C47.327 35.6746 49.67 36.4113 52.0579 36.3372C54.8362 36.3372 57.1703 35.6495 59.0602 34.2741C60.9501 32.8986 61.8935 30.935 61.8904 28.3833C61.8904 25.6263 60.9562 23.6152 59.0877 22.3501C57.2192 21.0849 54.8759 20.4416 52.0579 20.4202C49.3956 20.4202 47.1683 21.1263 45.3762 22.5385C43.584 23.9506 42.6879 25.9142 42.6879 28.4292C42.6879 30.9044 43.5947 32.8389 45.4082 34.2327" fill="black"/>
<path d="M72.2451 32.6199H79.7145C79.7162 32.7658 79.7254 32.9115 79.742 33.0564C79.8338 33.4068 79.9806 33.7403 80.177 34.0443C80.4545 34.5391 80.8396 34.9647 81.3036 35.2896C82.0096 35.7392 82.7826 36.0727 83.5935 36.2775C84.8184 36.6107 86.0846 36.7654 87.3534 36.737C92.2139 36.737 94.6427 35.6541 94.6396 33.4883V33.3734C94.603 32.5188 93.8519 31.8694 92.3864 31.4252C90.6362 30.9273 88.849 30.5708 87.042 30.3591C84.9567 30.0896 82.8638 29.7603 80.7632 29.3712C78.8327 29.0518 76.9903 28.3302 75.3547 27.2529C74.6604 26.8266 74.081 26.2358 73.6674 25.5323C73.2538 24.8289 73.0186 24.0344 72.9824 23.2185V22.929C72.9824 20.6867 74.2036 18.7614 76.6461 17.1531C79.0886 15.5449 82.5111 14.7423 86.9137 14.7453C89.2333 14.7065 91.5465 15.0005 93.7832 15.6184C95.7525 16.1974 97.189 16.8453 98.0927 17.5621C98.9632 18.237 99.7075 19.0616 100.291 19.9974C100.715 20.6095 101.038 21.286 101.248 22.0008C101.311 22.3036 101.349 22.6109 101.363 22.9198H93.9939C93.9891 22.8122 93.9706 22.7057 93.9389 22.6028C93.8136 22.3262 93.6468 22.0705 93.4443 21.8446C93.1382 21.4623 92.7659 21.1386 92.3452 20.8888C91.6933 20.5414 90.9921 20.2965 90.266 20.1628C89.1907 19.9387 88.0944 19.8324 86.9962 19.8458C85.3476 19.7833 83.7037 20.0585 82.1646 20.6545C80.9434 21.1967 80.3328 21.8752 80.3328 22.6901V22.8601C80.3694 23.5953 81.1479 24.1697 82.673 24.574C84.4708 25.0296 86.2978 25.3597 88.1411 25.562C90.2599 25.8162 92.3895 26.1547 94.5297 26.5775C96.499 26.9291 98.3664 27.7137 99.9978 28.8749C100.705 29.3567 101.289 29.9997 101.701 30.7512C102.114 31.5027 102.343 32.3414 102.37 33.1988V33.4286C102.37 35.9466 101.108 38.0067 98.5827 39.6089C96.0578 41.211 92.2109 42.0136 87.042 42.0166C84.6504 42.0618 82.2672 41.7189 79.9847 41.0011C77.9788 40.3211 76.5041 39.566 75.5607 38.7358C74.6436 37.9425 73.8785 36.988 73.303 35.9191C72.8794 35.215 72.5586 34.4537 72.3504 33.6583C72.2845 33.3126 72.2447 32.9624 72.2313 32.6107" fill="black"/>
<path d="M105.507 41.4423V4.12631H112.913V19.5012C115.111 16.3674 118.426 14.7806 122.86 14.7408H123.318C132.532 14.7408 137.14 19.0937 137.144 27.7997V41.4377H129.816V27.8043C129.816 22.8142 127.27 20.3191 122.177 20.3191H121.948C118.974 20.3191 116.727 21.14 115.207 22.782C113.686 24.4239 112.923 26.6403 112.917 29.431V41.4423H105.507Z" fill="black"/>
<path d="M140.963 7.77933C140.955 7.18742 141.067 6.60004 141.29 6.05218C141.514 5.50432 141.845 5.00719 142.264 4.5904C142.659 4.16441 143.138 3.82555 143.671 3.59537C144.204 3.36518 144.779 3.24868 145.359 3.25326C146.553 3.26168 147.696 3.74124 148.54 4.58822C149.384 5.43521 149.862 6.58154 149.87 7.77933C149.876 8.36119 149.761 8.93782 149.532 9.47257C149.303 10.0073 148.966 10.4885 148.542 10.8855C148.124 11.3099 147.624 11.6445 147.073 11.8688C146.522 12.0932 145.931 12.2026 145.337 12.1905C144.174 12.1786 143.063 11.71 142.241 10.8853C141.419 10.0606 140.952 8.94554 140.94 7.77933M149.096 41.4423H141.769V15.3243H149.096V41.4423Z" fill="black"/>
<path d="M153.905 41.4423V15.3243H160.958V20.0296C163.095 16.5466 166.528 14.7852 171.257 14.7453H171.715C180.93 14.7453 185.538 19.0983 185.541 27.8043V41.4423H178.214V27.8043C178.214 22.8142 175.669 20.3191 170.58 20.3191H170.351C167.377 20.3191 165.13 21.14 163.609 22.782C162.089 24.4239 161.326 26.6403 161.32 29.431V41.4423H153.905Z" fill="black"/>
<path d="M204.593 18.403C207.405 16.0411 211.145 14.8602 215.813 14.8602H217.104C221.153 15.0164 224.296 16.4868 226.534 19.2714V4.10793H233.861V41.4239H226.69V37.1873C224.372 40.1281 221.209 41.695 217.201 41.888C216.701 41.9293 216.198 41.9477 215.698 41.9477C211.033 41.9477 207.244 40.7377 204.332 38.3177C201.419 35.8976 199.963 32.6 199.963 28.4246C199.922 26.508 200.318 24.6073 201.121 22.8675C201.923 21.1276 203.111 19.5944 204.593 18.3846M210.203 34.2281C212.122 35.6556 214.465 36.3922 216.853 36.3188C219.631 36.3188 221.965 35.6311 223.855 34.2557C225.745 32.8803 226.69 30.9167 226.69 28.3649C226.69 25.6079 225.754 23.5968 223.882 22.3317C222.011 21.0665 219.668 20.4293 216.853 20.4202C214.19 20.4202 211.963 21.1263 210.171 22.5385C208.379 23.9506 207.484 25.9188 207.487 28.443C207.487 30.9182 208.394 32.8527 210.207 34.2465" fill="#05CC05"/>
<path d="M237.04 28.443C237.04 24.4178 238.458 21.1293 241.294 18.5776C244.131 16.0258 247.996 14.7484 252.89 14.7453C257.864 14.7453 261.73 16.0319 264.49 18.6051C267.25 21.1783 268.624 24.5158 268.612 28.6176C268.608 29.2763 268.57 29.9343 268.497 30.5889H244.225C244.373 31.4639 244.701 32.2983 245.189 33.0382C245.677 33.7782 246.315 34.4074 247.06 34.8852C248.642 35.9696 250.646 36.5118 253.073 36.5118C254.19 36.5245 255.304 36.4167 256.398 36.1902C257.186 36.0479 257.948 35.7844 258.656 35.409C259.112 35.1366 259.547 34.8293 259.956 34.49C260.22 34.2991 260.438 34.0509 260.593 33.764L260.767 33.4148H268.095C268.058 33.5297 268.007 33.6951 267.948 33.9111C267.803 34.3235 267.62 34.7219 267.403 35.1012C267.084 35.6916 266.716 36.2542 266.304 36.7829C265.748 37.4563 265.127 38.0721 264.449 38.6209C263.63 39.3043 262.726 39.8788 261.761 40.3303C260.556 40.8673 259.295 41.2666 258.001 41.5204C256.359 41.8627 254.686 42.029 253.009 42.0166C248.225 42.0166 244.367 40.7913 241.436 38.3406C238.505 35.89 237.04 32.5923 237.04 28.4476M261.568 25.7182C261.527 24.0962 260.721 22.782 259.137 21.7711C257.552 20.7602 255.496 20.2639 252.95 20.2639C250.507 20.2639 248.53 20.7862 247.019 21.8308C246.326 22.2627 245.726 22.829 245.254 23.4965C244.782 24.164 244.448 24.9194 244.271 25.7182H261.568Z" fill="#05CC05"/>
<path d="M275.22 15.3243L285.108 35.0001L295.06 15.3243H302.927L288.813 41.4423H281.408L267.353 15.3243H275.22Z" fill="#05CC05"/>
<path d="M201.918 0L192.96 52.1302H187.589L196.542 0" fill="#05CC05"/>
</svg>
