<svg id="Layer_1" data-name="Layer 1" xmlns="http://www.w3.org/2000/svg" xmlns:xlink="http://www.w3.org/1999/xlink" viewBox="0 0 661.46 113.44"><defs><style>.cls-1{fill:none;}.cls-2{clip-path:url(#clip-path);}.cls-3{fill:#05cc05;}</style><clipPath id="clip-path" transform="translate(-45.94 -69.25)"><rect class="cls-1" x="-415.33" y="-72.03" width="1584" height="396"/></clipPath></defs><g class="cls-2"><path d="M45.94,143.77q.24-18.57,50-20.59c.93-.08,1.56-.12,1.9-.12v-.38q0-10.11-16.67-10.1a33.8,33.8,0,0,0-7.27.69A14.19,14.19,0,0,0,69.3,115a14,14,0,0,0-2.46,2,3.69,3.69,0,0,0-1.07,1.76l-.26.64H49.22v-.13Q51,110.44,60.46,105.5q8.08-4.17,20.84-4.17,15.54,0,23.94,5.69a17.92,17.92,0,0,1,8.4,15.66v19.7a4.92,4.92,0,0,0,.76,3.16,3.33,3.33,0,0,0,2.65.89h2.65v13h-2.78c-5.73,0-9.94-.6-12.63-1.83a10.29,10.29,0,0,1-5.56-6.88q-8.83,10-28.16,10-12.63,0-18.63-4.68a14.53,14.53,0,0,1-6-12Zm27.28,5.69h1a35.87,35.87,0,0,0,15.85-3.79q7.77-3.79,7.77-10.11v-2.9Q62.74,133.8,62.74,143.9q0,5.31,10.48,5.56" transform="translate(-45.94 -69.25)"/><path d="M122.73,131.14q0-13.26,9.66-21.41t25-8.14h2.78q13.51.5,21,10.1V102.6h15.67v62.64q0,10.48-4.3,13.9t-15.91,3.41H128.29V169.79h48.25c1.6,0,2.69-.31,3.28-.95a5.13,5.13,0,0,0,.89-3.47V150.59q-7.46,9.22-20.34,9.85c-1.09.09-2.19.13-3.28.13q-15.28,0-24.82-7.89t-9.54-21.54m22.36,12.63a23.17,23.17,0,0,0,14.52,4.55q9.1,0,15.29-4.48T181.08,131q0-9-6.12-13.14t-15.35-4.17q-8.72,0-14.59,4.61t-5.87,12.82q0,8.09,5.94,12.63" transform="translate(-45.94 -69.25)"/><path d="M203.69,140.24H220a9.25,9.25,0,0,0,.06.94,7.42,7.42,0,0,0,.95,2.15,8.35,8.35,0,0,0,2.46,2.72,17.43,17.43,0,0,0,5,2.14,28.91,28.91,0,0,0,8.21,1q15.92,0,15.91-7.07v-.25q-.12-2.77-4.92-4.23A73.18,73.18,0,0,0,236,135.31q-6.83-.88-13.71-2.15a30.59,30.59,0,0,1-11.81-4.61,10.85,10.85,0,0,1-5.18-8.78v-.63q0-7.32,8-12.57t22.42-5.24a53.17,53.17,0,0,1,15,1.9q6.45,1.89,9.41,4.23a20.47,20.47,0,0,1,4.8,5.3,15.29,15.29,0,0,1,2.09,4.36,12.55,12.55,0,0,1,.25,2H251.18a2.76,2.76,0,0,0-.12-.69,6.49,6.49,0,0,0-1.08-1.64,8.91,8.91,0,0,0-2.4-2.09,16,16,0,0,0-4.54-1.58,33.12,33.12,0,0,0-7.14-.69,26.32,26.32,0,0,0-10.55,1.77q-4,1.77-4,4.42V119q.12,2.4,5.11,3.72a86.17,86.17,0,0,0,11.94,2.15q6.94.83,13.95,2.21a29.74,29.74,0,0,1,11.94,5,11.84,11.84,0,0,1,5.18,9.41v.5q0,8.22-8.27,13.46T236,160.7a48.48,48.48,0,0,1-15.41-2.21q-6.57-2.22-9.66-4.93a21.73,21.73,0,0,1-4.93-6.13,18.73,18.73,0,0,1-2.08-4.92,15.25,15.25,0,0,1-.26-2.27" transform="translate(-45.94 -69.25)"/><path d="M276.32,159.43V78.22h16.17v33.47q7.2-10.23,21.72-10.36h1q30.18,0,30.19,28.42v29.68h-16V129.75q0-16.29-16.68-16.29h-.5q-9.74,0-14.72,5.37t-5,14.46v26.14Z" transform="translate(-45.94 -69.25)"/><path d="M353.74,86.18a9.61,9.61,0,0,1,2.84-7,9.13,9.13,0,0,1,6.76-2.9,9.9,9.9,0,0,1,9.85,9.85,9.13,9.13,0,0,1-2.9,6.75,9.58,9.58,0,0,1-7,2.85,9.72,9.72,0,0,1-9.6-9.6m17.81,73.25h-16V102.6h16Z" transform="translate(-45.94 -69.25)"/><path d="M382,159.43V102.6h15.4v10.23q7-11.37,22.49-11.5h1q30.18,0,30.19,28.42v29.68H435.08V129.75q0-16.29-16.67-16.29h-.5q-9.74,0-14.72,5.37t-5,14.46v26.14Z" transform="translate(-45.94 -69.25)"/><path class="cls-3" d="M492.68,109.29q9.21-7.7,24.5-7.7H520q13.26.5,20.59,9.6v-33h16v81.21H540.93v-9.22q-7.59,9.6-20.72,10.23c-1.09.09-2.19.13-3.28.13q-15.28,0-24.82-7.89t-9.54-21.54a27.42,27.42,0,0,1,10.11-21.85m12.25,34.48a23.19,23.19,0,0,0,14.52,4.55q9.1,0,15.29-4.48T540.93,131q0-9-6.13-13.14t-15.35-4.17q-8.72,0-14.59,4.61T499,131.14q0,8.09,5.94,12.63" transform="translate(-45.94 -69.25)"/><path class="cls-3" d="M563.53,131.14q0-13.12,9.29-21.47t25.32-8.34q16.29,0,25.33,8.4t9,21.79a41.25,41.25,0,0,1-.25,4.3h-53a13.81,13.81,0,0,0,6.19,9.34q5.18,3.54,13.13,3.54a34,34,0,0,0,7.26-.7,17,17,0,0,0,4.93-1.7,21.62,21.62,0,0,0,2.84-2,4.73,4.73,0,0,0,1.39-1.58l.38-.76h16c-.08.26-.19.62-.32,1.08a15.71,15.71,0,0,1-1.19,2.59,26.15,26.15,0,0,1-2.4,3.66,27.9,27.9,0,0,1-4.05,4,27.06,27.06,0,0,1-5.87,3.72,37.79,37.79,0,0,1-8.21,2.59,51.7,51.7,0,0,1-10.92,1.08q-15.67,0-25.27-8t-9.6-21.54m53.56-5.93c-.09-3.54-1.85-6.4-5.31-8.59s-7.95-3.29-13.51-3.29q-8,0-12.95,3.41a13.4,13.4,0,0,0-6,8.47Z" transform="translate(-45.94 -69.25)"/><polygon class="cls-3" points="600.96 33.35 622.56 76.17 644.28 33.35 661.46 33.35 630.64 90.19 614.47 90.19 583.78 33.35 600.96 33.35"/><polyline class="cls-3" points="440.9 0 421.34 113.44 409.61 113.44 429.17 0"/></g></svg>